<svg width="512" height="512" xmlns="http://www.w3.org/2000/svg">
 <defs>
  <linearGradient y2="0" x2="1" y1="0" x1="0" id="svg_7">
   <stop offset="0.003906" stop-opacity="0.992188" stop-color="#fe1407"/>
   <stop offset="0.398438" stop-opacity="0.996094" stop-color="#fe9145"/>
  </linearGradient>
 </defs>
 <g>
  <title>background</title>
  <rect fill="none" id="canvas_background" height="402" width="582" y="-1" x="-1"/>
 </g>
 <g>
  <title>Layer 1</title>
  <path fill="url(#svg_7)" id="svg_2" d="m207.246,100.63l48.754,-29.43l138.814,83.79c3.782,2.039 7.215,1.191 10.297,-2.545c2.141,-3.547 1.001,-8.156 -2.545,-10.297l-142.69,-86.13c-2.385,-1.439 -5.369,-1.439 -7.752,0l-52.63,31.77c-3.546,2.141 -4.686,6.751 -2.545,10.297c2.142,3.547 6.753,4.685 10.297,2.545z"/>
  <path fill="url(#svg_7)" id="svg_3" d="m508.376,206.018l-77.83,-46.98c-3.546,-2.139 -8.156,-1.002 -10.297,2.545c-2.141,3.546 -1.001,8.156 2.545,10.297l67.193,40.56l-27.98,16.889l-205.124,-24.338c-4.109,-0.481 -7.843,2.451 -8.332,6.564c-0.487,4.113 2.451,7.844 6.564,8.332l185.976,22.066l-185.091,111.725l-233.986,-141.239l157.242,-94.909c3.546,-2.141 4.686,-6.75 2.545,-10.297c-2.142,-3.547 -6.748,-4.683 -10.297,-2.545l-167.88,101.33c-2.249,1.358 -3.624,3.793 -3.624,6.421c0,2.627 1.375,5.063 3.624,6.421l96.376,58.175l0,32.025c0,4.143 3.357,7.5 7.5,7.5s7.5,-3.357 7.5,-7.5l0,-22.97l137.124,82.771c2.584,1.439 5.168,1.439 7.752,0l137.124,-82.772l0,77.91c0,2.439 -1.333,4.671 -3.487,5.828l-131,70.58c-4.077,2.196 -8.946,2.198 -13.025,0l-131.009,-70.585c-2.146,-1.152 -3.479,-3.384 -3.479,-5.823l0,-22.26c0,-4.143 -3.357,-7.5 -7.5,-7.5s-7.5,3.357 -7.5,7.5l0,22.26c0,7.973 4.361,15.268 11.372,19.033l131,70.58c4.267,2.3 8.947,3.449 13.628,3.449s9.361,-1.15 13.628,-3.449l130.991,-70.575c7.02,-3.771 11.381,-11.065 11.381,-19.038l0,-86.964l44.17,-26.662l0,67.286c-11.53,3.273 -20.003,13.889 -20.003,26.453c0,0.039 0.003,0.077 0.003,0.115l0,78.262c0,4.143 3.357,7.5 7.5,7.5l40,0c4.143,0 7.5,-3.357 7.5,-7.5l0,-78.38c0,-0.04 -0.005,-0.079 -0.006,-0.119c-0.054,-12.509 -8.505,-23.066 -19.994,-26.33l0,-76.342l37.206,-22.458c2.249,-1.357 3.624,-3.794 3.624,-6.421s-1.375,-5.063 -3.624,-6.421zm-57.206,208.971l0,-46.394c8.334,4.023 16.667,4.022 25,-0.003l0,46.397l-25,0zm24.997,-70.878c0,6.893 -5.607,12.5 -12.5,12.5c-6.873,0 -12.465,-5.576 -12.497,-12.442l0,-0.06c0,-0.01 -0.001,-0.019 -0.001,-0.028c0.017,-6.879 5.616,-12.47 12.499,-12.47c6.892,0 12.499,5.608 12.499,12.5z"/>
 </g>
</svg>