<?xml version="1.0" standalone="no"?>
<!DOCTYPE svg PUBLIC "-//W3C//DTD SVG 20010904//EN"
 "http://www.w3.org/TR/2001/REC-SVG-20010904/DTD/svg10.dtd">
<svg version="1.0" xmlns="http://www.w3.org/2000/svg"
 width="700.000000pt" height="700.000000pt" viewBox="0 0 700.000000 700.000000"
 preserveAspectRatio="xMidYMid meet">
<metadata>
Created by potrace 1.11, written by Peter Selinger 2001-2013
</metadata>
<g transform="translate(0.000000,700.000000) scale(0.100000,-0.100000)"
fill="#000000" stroke="none">
<path d="M3364 6184 c-60 -37 -118 -71 -129 -78 -159 -90 -507 -307 -529 -328
-25 -26 -28 -34 -23 -74 6 -55 45 -94 94 -94 24 0 119 52 372 205 187 113 345
205 352 205 7 0 52 -25 102 -55 49 -30 93 -55 98 -55 5 0 9 -4 9 -10 0 -5 4
-10 9 -10 5 0 40 -19 77 -42 97 -59 799 -482 1245 -751 416 -251 420 -252 478
-198 25 24 31 37 31 71 0 62 -1 63 -406 305 -110 66 -325 195 -854 515 -740
447 -762 460 -790 460 -16 0 -73 -28 -136 -66z"/>
<path d="M2306 5545 c-32 -19 -60 -35 -62 -35 -2 0 -22 -13 -46 -28 -24 -16
-59 -38 -78 -48 -19 -10 -39 -23 -45 -27 -8 -6 -873 -529 -1050 -634 -22 -13
-58 -35 -80 -48 -22 -14 -67 -41 -100 -61 -33 -19 -106 -63 -162 -97 -57 -34
-219 -132 -360 -217 -142 -85 -273 -169 -292 -188 -30 -29 -33 -37 -28 -73 3
-22 13 -49 22 -59 14 -15 240 -156 420 -260 23 -14 159 -96 301 -182 143 -86
340 -205 439 -265 l180 -109 1 -221 c1 -122 4 -233 8 -248 15 -58 83 -87 139
-60 52 24 58 48 58 231 0 90 3 164 6 164 9 0 106 -57 573 -340 239 -145 599
-362 800 -483 201 -121 400 -241 444 -268 59 -36 86 -47 111 -44 20 2 83 33
154 76 66 41 133 81 148 89 16 8 30 17 33 20 3 3 16 11 29 18 20 12 339 204
1221 737 273 165 325 195 333 195 11 0 7 -1064 -5 -1092 -10 -27 -31 -41 -203
-133 -38 -21 -92 -50 -120 -65 -27 -15 -90 -49 -140 -75 -49 -26 -112 -60
-140 -75 -27 -15 -81 -44 -120 -65 -38 -20 -77 -40 -85 -46 -16 -9 -296 -160
-445 -239 -49 -26 -106 -56 -125 -67 -32 -18 -84 -46 -255 -138 -33 -18 -100
-53 -148 -79 -133 -72 -148 -70 -382 57 -55 30 -140 76 -190 102 -49 27 -125
68 -167 92 -43 23 -79 43 -82 43 -2 0 -35 17 -73 39 -63 36 -98 54 -300 162
-43 23 -132 71 -198 107 -135 73 -204 110 -320 172 -336 180 -333 178 -344
213 -6 18 -10 107 -10 199 0 137 -3 172 -16 192 -37 56 -127 59 -166 4 -21
-29 -22 -41 -22 -217 1 -201 8 -246 50 -308 46 -67 58 -75 298 -203 44 -23 94
-50 110 -60 17 -9 71 -39 120 -65 50 -26 113 -60 140 -75 28 -15 95 -51 150
-80 55 -29 114 -60 130 -70 34 -20 118 -65 250 -135 50 -26 115 -62 145 -78
30 -17 69 -37 85 -45 17 -9 64 -34 105 -57 41 -23 118 -65 170 -92 52 -28 126
-68 165 -88 90 -49 150 -64 233 -60 88 4 119 16 340 136 233 127 260 141 512
277 113 60 225 121 250 134 25 14 86 47 135 73 416 221 746 403 776 427 42 34
84 106 95 163 4 21 7 303 6 625 0 322 1 595 4 606 3 20 19 32 109 84 17 10 59
36 95 58 60 37 229 139 339 204 25 15 48 27 52 28 3 0 5 -205 5 -455 l-1 -454
-62 -31 c-78 -39 -151 -118 -183 -196 l-24 -59 -2 -580 c-1 -467 1 -586 12
-613 24 -58 48 -62 364 -62 302 0 335 5 361 52 10 18 13 144 14 578 0 305 -3
578 -7 606 -18 117 -95 222 -203 275 l-63 31 1 521 2 521 254 152 c140 84 263
162 273 172 30 30 34 91 8 124 -17 23 -154 110 -438 279 -15 9 -171 103 -347
209 -215 130 -332 194 -357 198 -33 4 -42 0 -73 -31 -40 -40 -45 -76 -17 -120
16 -25 96 -76 849 -530 80 -48 99 -63 86 -70 -8 -5 -95 -57 -192 -116 l-176
-106 -55 6 c-30 4 -73 9 -95 12 -22 4 -67 9 -100 12 -33 3 -71 8 -85 10 -14 2
-45 6 -70 9 -118 14 -220 26 -270 31 -30 3 -66 8 -80 10 -23 3 -70 9 -170 20
-32 4 -55 7 -170 20 -123 15 -212 25 -260 30 -30 3 -84 10 -120 15 -36 5 -90
12 -120 15 -30 3 -93 10 -140 16 -47 5 -103 12 -125 14 -40 5 -259 32 -325 40
-19 2 -57 7 -85 10 -27 3 -66 7 -85 10 -19 2 -60 7 -90 10 -30 4 -66 8 -80 10
-14 2 -52 7 -84 10 -33 3 -73 8 -90 11 -74 13 -141 12 -168 -4 -61 -36 -64
-135 -6 -171 12 -7 73 -20 137 -27 64 -8 136 -16 161 -19 25 -3 59 -8 75 -10
17 -2 50 -7 75 -9 25 -3 83 -10 130 -15 47 -6 110 -13 140 -17 30 -3 66 -7 80
-9 14 -2 54 -6 90 -10 36 -3 76 -8 90 -10 14 -2 50 -7 80 -10 30 -3 62 -8 70
-10 8 -2 49 -7 90 -10 41 -4 82 -8 90 -10 8 -2 47 -6 85 -10 39 -4 78 -9 88
-11 10 -2 48 -6 85 -10 36 -3 75 -8 85 -10 11 -2 45 -6 76 -9 31 -3 67 -8 81
-10 14 -3 52 -7 85 -10 33 -4 71 -8 85 -10 14 -2 50 -6 80 -10 30 -3 89 -10
130 -15 41 -5 102 -12 135 -16 33 -3 69 -8 80 -10 11 -2 52 -7 90 -10 39 -3
74 -8 78 -11 7 -4 -75 -63 -88 -63 -2 0 -23 -13 -47 -28 -24 -16 -59 -38 -78
-48 -19 -10 -37 -21 -40 -24 -3 -3 -16 -11 -30 -19 -25 -15 -711 -428 -1085
-655 -681 -412 -713 -431 -800 -482 -11 -6 -91 -55 -178 -108 -87 -53 -162
-96 -168 -96 -5 0 -21 8 -35 17 -14 9 -39 24 -54 32 -27 15 -298 179 -815 492
-126 77 -297 180 -380 230 -260 156 -579 348 -595 358 -8 5 -64 40 -125 76
-60 36 -166 100 -235 142 -69 42 -278 168 -465 281 -187 112 -375 226 -417
251 l-77 47 137 83 c75 45 367 221 647 390 1228 741 1380 834 1392 849 33 42
28 98 -12 138 -36 36 -87 32 -159 -11z m4115 -3101 c108 -55 115 -221 12 -287
-115 -75 -263 2 -263 137 0 129 136 210 251 150z m-81 -522 c36 0 87 8 117 19
l53 18 0 -313 c0 -242 -3 -315 -12 -318 -7 -2 -83 -3 -168 -3 l-155 1 -3 317
-2 316 53 -18 c30 -11 81 -19 117 -19z"/>
</g>
</svg>
